HIERARCHY
ROOT joint_Root
{
	OFFSET 0.0 0.0 0.0
	CHANNELS 6 Xposition Yposition Zposition Zrotation Xrotation Yrotation 
	JOINT Hips
	{
		OFFSET 4.5925 91.4895 -427.239
		CHANNELS 6 Xposition Yposition Zposition Zrotation Xrotation Yrotation 
		JOINT Spine
		{
			OFFSET 15.7357 0.0 0.0
			CHANNELS 6 Xposition Yposition Zposition Zrotation Xrotation Yrotation 
			JOINT Chest
			{
				OFFSET 8.98455 -0.406207 0.0
				CHANNELS 6 Xposition Yposition Zposition Zrotation Xrotation Yrotation 
				JOINT Neck
				{
					OFFSET 16.3773 0.0 0.0
					CHANNELS 6 Xposition Yposition Zposition Zrotation Xrotation Yrotation 
					JOINT Head
					{
						OFFSET 6.45672 0.0 0.0
						CHANNELS 6 Xposition Yposition Zposition Zrotation Xrotation Yrotation 
						End Site
						{
							OFFSET 0.0 0.0 0.0
						}
					}
				}
				JOINT Shoulder_L
				{
					OFFSET 12.9942 -0.242716 4.98039
					CHANNELS 6 Xposition Yposition Zposition Zrotation Xrotation Yrotation 
					JOINT UpperArm_L
					{
						OFFSET 5.34809 0.0 0.0
						CHANNELS 6 Xposition Yposition Zposition Zrotation Xrotation Yrotation 
						JOINT LowerArm_L
						{
							OFFSET 24.3286 1.87007e-05 0.0
							CHANNELS 6 Xposition Yposition Zposition Zrotation Xrotation Yrotation 
							JOINT Hand_L
							{
								OFFSET 22.2916 0.0 0.0
								CHANNELS 6 Xposition Yposition Zposition Zrotation Xrotation Yrotation 
								End Site
								{
									OFFSET 0.0 0.0 0.0
								}
							}
						}
					}
				}
				JOINT Shoulder_R
				{
					OFFSET 12.9945 -0.242716 -4.98039
					CHANNELS 6 Xposition Yposition Zposition Zrotation Xrotation Yrotation 
					JOINT UpperArm_R
					{
						OFFSET -5.34813 0.0 0.0
						CHANNELS 6 Xposition Yposition Zposition Zrotation Xrotation Yrotation 
						JOINT LowerArm_R
						{
							OFFSET -24.3289 0.000322201 0.0
							CHANNELS 6 Xposition Yposition Zposition Zrotation Xrotation Yrotation 
							JOINT Hand_R
							{
								OFFSET -22.2915 -0.000108084 0.0
								CHANNELS 6 Xposition Yposition Zposition Zrotation Xrotation Yrotation 
								End Site
								{
									OFFSET 0.0 0.0 0.0
								}
							}
						}
					}
				}
			}
		}
		JOINT UpperLeg_L
		{
			OFFSET -2.19248 -6.46944 0.0
			CHANNELS 6 Xposition Yposition Zposition Zrotation Xrotation Yrotation 
			JOINT LowerLeg_L
			{
				OFFSET 39.0811 0.0 -1.23785e-05
				CHANNELS 6 Xposition Yposition Zposition Zrotation Xrotation Yrotation 
				JOINT Foot_L
				{
					OFFSET 40.9854 0.0 -1.26872e-05
					CHANNELS 6 Xposition Yposition Zposition Zrotation Xrotation Yrotation 
					JOINT Toes_L
					{
						OFFSET 11.7543 0.0 0.0
						CHANNELS 6 Xposition Yposition Zposition Zrotation Xrotation Yrotation 
						End Site
						{
							OFFSET 0.0 0.0 0.0
						}
					}
				}
			}
		}
		JOINT UpperLeg_R
		{
			OFFSET -2.19251 6.46944 0.0
			CHANNELS 6 Xposition Yposition Zposition Zrotation Xrotation Yrotation 
			JOINT LowerLeg_R
			{
				OFFSET -39.0811 -0.00228153 -0.0401928
				CHANNELS 6 Xposition Yposition Zposition Zrotation Xrotation Yrotation 
				JOINT Foot_R
				{
					OFFSET -40.9854 0.0 0.0
					CHANNELS 6 Xposition Yposition Zposition Zrotation Xrotation Yrotation 
					JOINT Toes_R
					{
						OFFSET -11.7543 0.0 0.0
						CHANNELS 6 Xposition Yposition Zposition Zrotation Xrotation Yrotation 
						End Site
						{
							OFFSET 0.0 0.0 0.0
						}
					}
				}
			}
		}
	}
}
MOTION
Frames:	7
Frame Time:	0.0333333
0.000000 0.000000 0.000000 0.000000 0.000000 -0.000000 -0.073590 84.500900 2.140020 88.662500 -3.421730 13.890700 15.735700 0.000005 -0.000001 90.091700 79.727300 -90.015800 8.984550 -0.406207 -0.000000 12.779200 0.035889 0.147881 16.377300 -0.000001 -0.000001 -2.249150 -3.690270 1.727400 6.456720 -0.000001 -0.000000 -4.688760 -3.145980 1.402390 12.994200 -0.242716 4.980390 -91.199900 3.312000 -70.070200 5.348090 -0.000007 -0.000001 -76.082800 19.187600 2.184320 24.328600 0.000019 0.000005 4.601830 15.188500 -17.080800 22.291600 -0.000001 0.000005 15.993500 4.948530 8.393910 12.994500 -0.242716 -4.980390 88.296600 7.650140 -77.405700 -5.348130 -0.000001 -0.000004 -68.316300 4.110700 -5.872860 -24.328900 0.000322 -0.000009 -2.263640 -17.220700 -7.597420 -22.291500 -0.000108 -0.000004 13.288900 4.935890 8.664670 -2.192480 -6.469440 -0.000000 -172.590000 -12.039000 -5.740520 39.081100 -0.000007 -0.000012 -0.452837 0.321757 54.605900 40.985400 -0.000006 -0.000013 1.201830 4.791190 -84.547000 11.754300 -0.000000 0.000003 -0.000419 -0.003438 -16.704100 -2.192510 6.469440 -0.000001 175.136000 14.381200 173.725000 -39.081100 -0.002282 -0.040193 0.063047 -0.042074 54.879400 -40.985400 0.000008 0.000006 4.492510 4.120330 -83.184300 -11.754300 -0.000006 -0.000006 -0.754374 -0.925823 -17.291500
0.000000 0.000000 0.000000 0.000000 0.000000 -0.000000 -0.020802 86.780500 2.658590 88.684800 -2.834590 12.480600 15.735700 0.000005 -0.000001 90.391300 80.966800 -90.254300 8.984550 -0.406207 -0.000000 10.299800 0.125605 0.262602 16.377300 -0.000001 -0.000001 0.014032 -3.709260 1.632120 6.456720 -0.000001 -0.000000 -3.487570 -3.345600 0.934708 12.994200 -0.242716 4.980390 -90.765200 1.985850 -68.914300 5.348090 -0.000007 -0.000001 -73.151700 12.348600 0.900805 24.328600 0.000019 0.000005 5.555290 15.324400 -20.199500 22.291600 -0.000001 0.000005 17.228700 4.971220 7.921120 12.994500 -0.242716 -4.980390 88.578400 5.826010 -76.259000 -5.348130 -0.000001 -0.000004 -65.300600 -5.032460 -8.077160 -24.328900 0.000322 -0.000009 -1.354980 -15.740600 -4.978900 -22.291500 -0.000108 -0.000004 13.045400 4.736500 12.493500 -2.192480 -6.469440 -0.000000 -173.054000 -11.851900 -3.179990 39.081100 -0.000007 -0.000012 -0.367853 0.344155 46.907200 40.985400 -0.000006 -0.000013 1.023590 5.097180 -80.904900 11.754300 -0.000000 0.000003 -0.000347 -0.002941 -16.686600 -2.192510 6.469440 -0.000001 175.131000 15.309700 176.277000 -39.081100 -0.002282 -0.040193 0.046199 -0.039342 47.505900 -40.985400 0.000008 0.000006 4.339490 4.778860 -79.240700 -11.754300 -0.000006 -0.000006 -0.890347 -1.087360 -17.708700
0.000000 0.000000 0.000000 0.000000 0.000000 -0.000000 0.164240 88.998300 2.726170 88.713800 -2.339260 9.311850 15.735700 0.000005 -0.000001 91.787200 83.116100 -91.543500 8.984550 -0.406207 -0.000000 5.994410 0.424473 0.464690 16.377300 -0.000001 -0.000001 4.105530 -3.623870 1.434680 6.456720 -0.000001 -0.000000 -2.330410 -3.514710 0.566372 12.994200 -0.242716 4.980390 -90.174300 0.425815 -67.714900 5.348090 -0.000007 -0.000001 -66.641100 2.896940 -5.715990 24.328600 0.000019 0.000005 6.260680 14.913900 -23.098800 22.291600 -0.000001 0.000005 20.519400 4.942890 8.510550 12.994500 -0.242716 -4.980390 89.008800 3.759650 -75.214000 -5.348130 -0.000001 -0.000004 -58.930300 -14.669100 -13.337000 -24.328900 0.000322 -0.000009 -1.334790 -16.774300 -4.612240 -22.291500 -0.000108 -0.000004 13.181500 4.688760 13.358300 -2.192480 -6.469440 -0.000000 -174.112000 -11.747100 -2.391290 39.081100 -0.000007 -0.000012 -0.272348 0.343651 38.397800 40.985400 -0.000006 -0.000013 0.789558 5.041680 -76.490100 11.754300 -0.000000 0.000003 -0.000220 -0.002005 -16.653000 -2.192510 6.469440 -0.000001 175.521000 17.049100 176.778000 -39.081100 -0.002282 -0.040193 0.030974 -0.033335 39.720500 -40.985400 0.000008 0.000006 4.225980 6.075270 -74.241500 -11.754300 -0.000006 -0.000006 -1.053840 -1.269580 -18.526400
0.000000 0.000000 0.000000 0.000000 0.000000 -0.000000 0.351022 90.465900 2.545700 88.807400 -1.541440 6.478620 15.735700 0.000005 -0.000001 91.893900 85.028500 -91.463500 8.984550 -0.406207 -0.000000 2.170500 0.307367 0.854298 16.377300 -0.000001 -0.000001 7.780350 -3.684150 1.172770 6.456720 -0.000001 -0.000000 -1.339020 -3.601240 -0.033002 12.994200 -0.242716 4.980390 -89.739500 -0.616246 -67.085500 5.348090 -0.000007 -0.000001 -59.352400 -8.326140 -15.479400 24.328600 0.000019 0.000005 4.695750 8.495170 -29.113500 22.291600 -0.000001 0.000005 23.606200 5.033950 6.606760 12.994500 -0.242716 -4.980390 89.343400 2.247210 -73.703400 -5.348130 -0.000001 -0.000004 -51.602700 -24.620300 -23.809400 -24.328900 0.000322 -0.000009 -2.105410 -18.446900 -6.620240 -22.291500 -0.000108 -0.000004 12.301800 4.810840 11.088500 -2.192480 -6.469440 -0.000000 -175.127000 -11.396200 -2.324510 39.081100 -0.000007 -0.000012 -0.199609 0.322870 31.726000 40.985400 -0.000006 -0.000013 0.706873 5.161410 -72.871200 11.754300 -0.000000 0.000003 -0.000146 -0.001416 -16.631400 -2.192510 6.469440 -0.000001 175.592000 19.871400 176.812000 -39.081100 -0.002282 -0.040193 0.019695 -0.024627 33.662700 -40.985400 0.000008 0.000006 4.247240 8.455760 -70.520700 -11.754300 -0.000006 -0.000006 -1.078550 -1.286550 -19.068900
0.000000 0.000000 0.000000 0.000000 0.000000 -0.000000 0.526946 91.040000 2.309670 89.110200 -0.988183 4.790690 15.735700 0.000005 -0.000001 90.235100 86.021400 -89.715800 8.984550 -0.406207 -0.000000 0.191411 -0.001672 1.037970 16.377300 -0.000001 -0.000001 9.043380 -3.730310 0.984275 6.456720 -0.000001 -0.000000 -0.664494 -3.727750 -0.462794 12.994200 -0.242716 4.980390 -89.466100 -1.264250 -67.099800 5.348090 -0.000007 -0.000001 -50.962600 -19.488900 -27.721100 24.328600 0.000019 0.000005 4.497880 5.712010 -38.338200 22.291600 -0.000001 0.000005 25.991000 5.179810 3.238030 12.994500 -0.242716 -4.980390 89.871900 0.449133 -74.118600 -5.348130 -0.000001 -0.000004 -48.037000 -37.517300 -36.177600 -24.328900 0.000322 -0.000009 -6.711380 -22.611700 -16.978300 -22.291500 -0.000108 -0.000004 11.050300 5.211100 2.425450 -2.192480 -6.469440 -0.000000 -175.879000 -11.641300 -2.796460 39.081100 -0.000007 -0.000012 -0.167384 0.306066 28.674000 40.985400 -0.000006 -0.000013 0.897749 5.857120 -71.125200 11.754300 -0.000000 0.000003 -0.000160 -0.001535 -16.635800 -2.192510 6.469440 -0.000001 175.396000 21.905000 177.190000 -39.081100 -0.002282 -0.040193 0.011902 -0.015071 29.707800 -40.985400 0.000008 0.000006 4.219330 10.094200 -70.082100 -11.754300 -0.000006 -0.000006 -0.262800 -0.338706 -18.190600
0.000000 0.000000 0.000000 0.000000 0.000000 -0.000000 0.618761 91.091600 2.142900 89.468900 -0.533472 4.882610 15.735700 0.000005 -0.000001 86.391200 85.928000 -85.848300 8.984550 -0.406207 -0.000000 0.364722 -0.547525 1.086630 16.377300 -0.000001 -0.000001 8.050120 -3.662440 0.980268 6.456720 -0.000001 -0.000000 -0.702028 -3.409710 -0.949241 12.994200 -0.242716 4.980390 -88.970400 -2.504440 -67.639800 5.348090 -0.000007 -0.000001 -42.194300 -32.947200 -39.167800 24.328600 0.000019 0.000005 4.244350 3.828820 -48.028100 22.291600 -0.000001 0.000005 27.811200 5.336650 -0.946813 12.994500 -0.242716 -4.980390 90.604000 -2.173540 -74.470400 -5.348130 -0.000001 -0.000004 -42.955100 -45.963700 -46.721600 -24.328900 0.000322 -0.000009 -15.590500 -22.854900 -35.726300 -22.291500 -0.000108 -0.000004 18.300100 5.561980 -8.787810 -2.192480 -6.469440 -0.000000 -176.175000 -12.100300 -2.688650 39.081100 -0.000007 -0.000012 -0.155300 0.288371 28.304600 40.985400 -0.000006 -0.000013 1.171790 6.729170 -70.799100 11.754300 -0.000000 0.000003 -0.000172 -0.001632 -16.639400 -2.192510 6.469440 -0.000001 174.828000 22.384100 178.443000 -39.081100 -0.002282 -0.040193 -0.021348 0.046645 27.858500 -40.985400 0.000008 0.000006 3.726520 10.188900 -71.030700 -11.754300 -0.000006 -0.000006 -0.001628 -0.023962 -17.547500
0.000000 0.000000 0.000000 0.000000 0.000000 -0.000000 0.648784 91.193400 1.871170 89.700200 -0.094175 4.896320 15.735700 0.000005 -0.000001 83.938900 85.535000 -83.401800 8.984550 -0.406207 -0.000000 1.118960 -0.973639 1.082750 16.377300 -0.000001 -0.000001 5.820130 -3.670600 1.163770 6.456720 -0.000001 -0.000000 -1.125090 -2.731080 -1.164140 12.994200 -0.242716 4.980390 -87.740100 -5.461460 -67.485900 5.348090 -0.000007 -0.000001 -38.274400 -47.450000 -49.846000 24.328600 0.000019 0.000005 5.380810 3.528140 -56.833400 22.291600 -0.000001 0.000005 33.366500 5.384060 -2.393150 12.994500 -0.242716 -4.980390 91.549000 -5.035230 -72.891100 -5.348130 -0.000001 -0.000004 -39.503000 -54.839600 -57.499400 -24.328900 0.000322 -0.000009 -13.693500 -11.123800 -51.664500 -22.291500 -0.000108 -0.000004 28.527300 5.649190 -14.500700 -2.192480 -6.469440 -0.000000 -176.476000 -11.841800 -2.664460 39.081100 -0.000007 -0.000012 -0.146208 0.277732 27.764100 40.985400 -0.000006 -0.000013 1.240070 6.981770 -70.308500 11.754300 -0.000000 0.000003 -0.000179 -0.001684 -16.641300 -2.192510 6.469440 -0.000001 174.321000 22.631000 178.711000 -39.081100 -0.002282 -0.040193 -0.116331 0.233324 27.146900 -40.985400 0.000008 0.000006 1.697520 10.627500 -70.093300 -11.754300 -0.000006 -0.000006 -0.001507 -0.022359 -17.482300
